<svg height="512pt" viewBox="-18 0 511 512" width="512pt" fill="#11126B" xmlns="http://www.w3.org/2000/svg"><path d="m114.691406 163.945312h105.617188c5.523437 0 10-4.480468 10-10 0-5.523437-4.476563-10-10-10h-105.617188c-5.523437 0-10 4.476563-10 10 0 5.519532 4.476563 10 10 10zm0 0"/><path d="m114.691406 224.207031h77.667969c5.523437 0 10-4.476562 10-10 0-5.519531-4.476563-10-10-10h-77.667969c-5.523437 0-10 4.480469-10 10 0 5.523438 4.476563 10 10 10zm0 0"/><path d="m154.359375 264.472656h-39.667969c-5.523437 0-10 4.476563-10 10 0 5.519532 4.476563 10 10 10h39.667969c5.523437 0 10-4.480468 10-10 0-5.523437-4.476563-10-10-10zm0 0"/><path d="m144.023438 324.734375h-29.332032c-5.523437 0-10 4.480469-10 10 0 5.523437 4.476563 10 10 10h29.332032c5.523437 0 10-4.476563 10-10 0-5.519531-4.476563-10-10-10zm0 0"/><path d="m74.796875 176.609375c-.25-.601563-.550781-1.179687-.910156-1.71875-.367188-.550781-.789063-1.0625-1.25-1.523437-2.320313-2.328126-5.769531-3.390626-9.019531-2.738282-.640626.128906-1.269532.332032-1.871094.582032-.609375.25-1.1875.558593-1.726563.917968-.550781.359375-1.0625.78125-1.523437 1.238282-.457032.460937-.878906.972656-1.238282 1.523437-.359374.539063-.667968 1.117187-.917968 1.71875-.25.609375-.441406 1.238281-.570313 1.871094-.132812.648437-.203125 1.308593-.203125 1.957031 0 .652344.070313 1.3125.203125 1.953125.128907.636719.320313 1.269531.570313 1.867187.25.609376.558594 1.191407.917968 1.730469.359376.550781.78125 1.0625 1.238282 1.519531.460937.460938.972656.882813 1.523437 1.242188.539063.367188 1.117188.667969 1.726563.917969.601562.25 1.230468.449219 1.871094.582031.640624.117188 1.300781.1875 1.949218.1875.652344 0 1.3125-.070312 1.960938-.1875.628906-.132812 1.261718-.332031 1.871094-.582031.597656-.25 1.179687-.550781 1.71875-.917969.550781-.359375 1.0625-.78125 1.519531-1.242188.460937-.457031.882812-.96875 1.25-1.519531.359375-.539062.660156-1.121093.910156-1.730469.25-.597656.449219-1.230468.570313-1.867187.128906-.640625.199218-1.300781.199218-1.953125 0-.648438-.070312-1.308594-.199218-1.957031-.121094-.628907-.320313-1.261719-.570313-1.871094zm0 0"/><path d="m434.050781 247.558594 18.539063-22.1875c4.394531-5.253906 6.476562-11.902344 5.867187-18.726563-.613281-6.824219-3.847656-13-9.097656-17.378906-10.851563-9.066406-27.050781-7.617187-36.117187 3.230469l-19.785157 23.679687c-15.117187-8.164062-31.269531-13.703125-48.199219-16.539062v-20.292969h.023438c12.773438 0 23.167969-10.394531 23.167969-23.164062 0-12.773438-10.394531-23.167969-23.167969-23.167969h-15.671875v-37.515625c0-23.128906-18.816406-41.945313-41.949219-41.945313h-8.699218v-11.042969c0-23.441406-19.070313-42.507812-42.507813-42.507812h-179.957031c-30.875 0-55.996094 25.121094-55.996094 55.996094v289.367187c0 23.4375 19.066406 42.503907 42.503906 42.503907h12.566406v5.3125c0 23.132812 18.816407 41.949218 41.949219 41.949218h86.292969c27.476562 46 77.761719 76.871094 135.125 76.871094 86.726562 0 157.28125-70.554688 157.28125-157.28125 0-40.300781-14.914062-78-42.167969-107.160156zm-5.457031-42.238282c1.992188-2.382812 5.554688-2.703124 7.949219-.703124 1.152343.960937 1.859375 2.316406 1.992187 3.8125.136719 1.5-.320312 2.960937-1.285156 4.113281 0 0-.003906.003906-.003906.003906l-17.75 21.242187c-.183594-.152343-.375-.296874-.558594-.449218-1.078125-.890625-2.167969-1.765625-3.269531-2.625-.242188-.1875-.480469-.382813-.722657-.570313-1.324218-1.023437-2.664062-2.019531-4.015624-2.996093-.121094-.085938-.234376-.179688-.355469-.265626zm-103.335938-7.757812c-.566406-.019531-1.136718-.03125-1.707031-.046875-.132812-.003906-.265625-.007813-.398437-.011719-2.796875-.074218-5.601563-.074218-8.402344 0-.179688.003906-.359375.007813-.539062.015625-.535157.015625-1.070313.027344-1.601563.046875v-18.222656h12.648437zm23.191407-41.382812c0 1.746093-1.421875 3.164062-3.167969 3.164062h-9.925781c-.035157 0-.066407-.003906-.097657-.003906h-32.652343c-.03125 0-.0625.003906-.09375.003906h-9.929688c-1.746093 0-3.164062-1.417969-3.164062-3.164062 0-1.746094 1.417969-3.164063 3.164062-3.164063h52.699219c1.746094 0 3.167969 1.417969 3.167969 3.164063zm-174.757813 258.953124h-76.171875c-12.105469 0-21.949219-9.847656-21.949219-21.949218v-172.746094c0-5.519531-4.476562-10-10-10-5.523437 0-10 4.480469-10 10v147.429688h-12.566406c-12.410156 0-22.503906-10.09375-22.503906-22.503907v-289.367187c0-19.847656 16.148438-35.996094 35.996094-35.996094h179.957031c12.410156 0 22.507813 10.097656 22.507813 22.507812v11.042969h-161.441407c-23.132812 0-41.949219 18.816407-41.949219 41.945313v44.945312c0 5.519532 4.476563 10 10 10 5.523438 0 10-4.480468 10-10v-44.945312c0-12.101563 9.84375-21.945313 21.949219-21.945313h190.140625c12.105469 0 21.953125 9.84375 21.953125 21.945313v37.519531h-17.027343c-12.777344 0-23.167969 10.390625-23.167969 23.164063 0 12.773437 10.390625 23.164062 23.167969 23.164062l.023437 20.296875c-.308594.054687-.613281.113281-.917969.167969-.53125.089844-1.058594.1875-1.589844.285156-.59375.109375-1.1875.226562-1.78125.34375-.542968.105469-1.085937.210938-1.625.324219-.578124.121093-1.152343.25-1.726562.375-.550781.121093-1.097656.242187-1.644531.367187-.5625.132813-1.125.269532-1.6875.40625-.554688.136719-1.109375.269532-1.664063.410156-.542968.136719-1.082031.285157-1.621094.425782-.570312.152344-1.136718.300781-1.703124.457031-.507813.144531-1.011719.292969-1.519532.441406-1.59375.460938-3.175781.9375-4.75 1.449219-.042968.015625-.089844.027344-.136718.042969-.628907.203125-1.253907.421875-1.882813.632812-.449219.152344-.898437.300781-1.34375.457031-.609375.214844-1.214844.4375-1.824219.65625-.460937.167969-.921875.332032-1.378906.503907-.597656.222656-1.195312.457031-1.792969.6875-.460937.179687-.921875.359375-1.382812.542969-.589844.234374-1.175781.476562-1.765625.71875-.460938.191406-.921875.382812-1.382813.578124-.582031.246094-1.164062.5-1.746093.753907-.457032.203125-.910157.402343-1.363282.609375-.582031.261718-1.160156.527344-1.738281.792968-.449219.207032-.894531.417969-1.339844.632813-.578125.277344-1.15625.554687-1.730469.835937-.441406.21875-.878906.4375-1.316406.65625-.574218.289063-1.148437.582032-1.71875.875-.433594.226563-.863281.457032-1.292968.683594-.574219.304688-1.144532.609375-1.714844.917969-.414063.226563-.828125.460937-1.238282.691406-.578124.324219-1.160156.644531-1.734374.976563-.386719.222656-.765626.449218-1.148438.675781-.597656.347656-1.195312.695313-1.789062 1.054687-.289063.175782-.574219.355469-.863282.535157-1.480468.90625-2.949218 1.839843-4.398437 2.796875-.113281.070312-.222657.140625-.332031.214844-.578126.382812-1.152344.777343-1.726563 1.171874-.367187.25-.734375.496094-1.101563.75-.53125.371094-1.058593.75-1.585937 1.128907-.402344.285156-.808594.570312-1.207031.863281-.507813.371094-1.011719.746094-1.519532 1.125-.40625.304688-.816406.609375-1.226562.917969-.496094.378906-.988281.765625-1.480469 1.152343-.410156.316407-.816406.636719-1.222656.960938-.484375.386719-.964844.777344-1.445313 1.167969-.410156.332031-.816406.667969-1.21875 1.003906-.472656.394531-.941406.792969-1.410156 1.191406-.40625.34375-.808594.691407-1.207031 1.042969-.464844.402344-.925781.808594-1.386719 1.21875-.394531.351562-.789062.710938-1.179687 1.066406-.457031.417969-.914063.832032-1.367188 1.253906-.386719.363282-.773437.730469-1.160156 1.097657-.445313.425781-.894531.851562-1.339844 1.28125-.378906.371093-.753906.746093-1.132812 1.121093-.441407.4375-.882813.875-1.320313 1.316407-.363281.371093-.722656.75-1.085937 1.128906-.441407.457031-.882813.910156-1.320313 1.371094-.308594.332031-.613281.667969-.917968 1-.460938.5-.925782.992187-1.382813 1.496093-26.070313 28.921876-40.429687 66.308594-40.429687 105.273438 0 15.871094 2.371093 31.195312 6.765624 45.648438.027344.097656.058594.195312.085938.292968.269531.882813.550781 1.761719.835938 2.636719.148437.457031.296874.914063.445312 1.367187.167969.496094.339844.984376.507812 1.472657.292969.851562.589844 1.699219.898438 2.542969.027344.070312.050781.136718.074219.203124.765625 2.097657 1.570312 4.183594 2.429687 6.25zm145.246094 76.867188c-58.992188 0-109.410156-37.402344-128.796875-89.734375-.0625-.175781-.132813-.351563-.199219-.53125-.25-.691406-.492187-1.386719-.734375-2.082031-.226562-.664063-.453125-1.324219-.671875-1.988282-.148437-.445312-.292968-.894531-.4375-1.339843-3.355468-10.59375-5.433594-21.601563-6.15625-32.742188-.011718-.175781-.023437-.351562-.035156-.527343-.070312-1.21875-.128906-2.4375-.171875-3.660157-.003906-.175781-.011719-.351562-.019531-.53125-.039063-1.378906-.0625-2.761719-.0625-4.144531 0-53.632812 30.707031-100.5625 76.292968-123.09375.039063-.019531.074219-.039062.109376-.054688.441406-.21875.886718-.425781 1.328124-.636718.496094-.238282.988282-.480469 1.492188-.714844.011719-.003906.027344-.011719.042969-.019531 13.203125-6.132813 27.59375-10.246094 42.800781-11.921875 9.648438-1.078125 19.855469-1.101563 29.546875-.082032.300781.03125.601563.050782.898437.085938 20.128907 2.214844 39.089844 8.699219 56.359376 19.273438 1.039062.636718 2.066406 1.289062 3.089843 1.953124 7.152344 4.648438 13.875 9.96875 20.039063 15.851563 27.449218 26.152344 42.566406 61.441406 42.566406 99.359375 0 75.695312-61.585938 137.28125-137.28125 137.28125zm0 0"/><path d="m318.933594 236.058594c-65.429688 0-118.660156 53.230468-118.660156 118.660156s53.230468 118.65625 118.660156 118.65625c65.429687 0 118.660156-53.226562 118.660156-118.65625s-53.230469-118.660156-118.660156-118.660156zm0 217.316406c-54.398438 0-98.660156-44.257812-98.660156-98.65625 0-54.402344 44.257812-98.660156 98.660156-98.660156s98.660156 44.257812 98.660156 98.660156c0 54.398438-44.257812 98.65625-98.660156 98.65625zm0 0"/><path d="m365.667969 289.589844c-4.488281-3.222656-10.734375-2.195313-13.957031 2.292968l-36.816407 51.3125-31.382812-8.8125c-5.320313-1.492187-10.839844 1.609376-12.332031 6.925782-1.492188 5.316406 1.605468 10.835937 6.921874 12.332031l38.128907 10.703125c.894531.253906 1.804687.375 2.703125.375 3.167968 0 6.214844-1.511719 8.125-4.171875l40.902344-57.003906c3.222656-4.488281 2.191406-10.734375-2.292969-13.953125zm0 0"/><path d="m318.933594 292.605469c5.523437 0 10-4.480469 10-10v-9.238281c0-5.519532-4.476563-10-10-10-5.523438 0-10 4.480468-10 10v9.238281c0 5.519531 4.476562 10 10 10zm0 0"/><path d="m318.933594 416.832031c-5.523438 0-10 4.476563-10 10v9.234375c0 5.523438 4.476562 10 10 10 5.523437 0 10-4.476562 10-10v-9.234375c0-5.523437-4.476563-10-10-10zm0 0"/><path d="m400.285156 344.71875h-9.238281c-5.523437 0-10 4.476562-10 10 0 5.519531 4.476563 10 10 10h9.238281c5.523438 0 10-4.480469 10-10 0-5.523438-4.476562-10-10-10zm0 0"/><path d="m246.820312 344.71875h-9.238281c-5.523437 0-10 4.476562-10 10 0 5.519531 4.476563 10 10 10h9.238281c5.523438 0 10-4.480469 10-10 0-5.523438-4.476562-10-10-10zm0 0"/></svg>
