<svg height="512pt" viewBox="-18 0 511 512" width="512pt" fill="#11126B" xmlns="http://www.w3.org/2000/svg"><path d="M114.691 163.945H220.31c5.523 0 10-4.48 10-10 0-5.523-4.477-10-10-10H114.69c-5.523 0-10 4.477-10 10 0 5.52 4.477 10 10 10zm0 60.262h77.668c5.524 0 10-4.477 10-10 0-5.52-4.476-10-10-10h-77.668c-5.523 0-10 4.48-10 10 0 5.523 4.477 10 10 10zm39.669 40.266h-39.67c-5.523 0-10 4.476-10 10 0 5.52 4.477 10 10 10h39.668c5.524 0 10-4.48 10-10 0-5.524-4.476-10-10-10zm-10.337 60.261h-29.332c-5.523 0-10 4.48-10 10 0 5.524 4.477 10 10 10h29.332c5.524 0 10-4.476 10-10 0-5.52-4.476-10-10-10zM74.797 176.61c-.25-.602-.55-1.18-.91-1.72-.367-.55-.79-1.062-1.25-1.523-2.32-2.328-5.77-3.39-9.02-2.738-.64.129-1.27.332-1.87.582a9.86 9.86 0 0 0-1.727.918 9.757 9.757 0 0 0-1.524 1.238 9.7 9.7 0 0 0-1.238 1.524 10.074 10.074 0 0 0-1.488 3.59 9.793 9.793 0 0 0-.204 1.957c0 .652.07 1.312.204 1.953.128.636.32 1.27.57 1.867.25.61.558 1.191.918 1.73.36.551.781 1.063 1.238 1.52.461.46.973.883 1.524 1.242a9.381 9.381 0 0 0 1.726.918c.602.25 1.23.45 1.871.582.64.117 1.301.188 1.95.188.652 0 1.312-.07 1.96-.188a10.896 10.896 0 0 0 1.871-.582c.598-.25 1.18-.55 1.72-.918a9.332 9.332 0 0 0 1.519-1.242c.46-.457.883-.969 1.25-1.52.36-.539.66-1.12.91-1.73.25-.598.45-1.23.57-1.867.13-.641.2-1.301.2-1.953a10.082 10.082 0 0 0-.77-3.829zm0 0"/><path d="M434.05 247.559l18.54-22.188c4.394-5.254 6.476-11.902 5.867-18.726-.613-6.825-3.848-13-9.098-17.38-10.851-9.066-27.05-7.617-36.117 3.231l-19.785 23.68a154.853 154.853 0 0 0-48.2-16.54v-20.292h.024c12.774 0 23.168-10.395 23.168-23.164 0-12.774-10.394-23.168-23.168-23.168H329.61V95.496c0-23.129-18.816-41.945-41.949-41.945h-8.7V42.508C278.96 19.066 259.89 0 236.454 0H56.496C25.621 0 .5 25.121.5 55.996v289.367c0 23.438 19.066 42.504 42.504 42.504H55.57v5.313c0 23.133 18.817 41.949 41.95 41.949h86.293c27.476 46 77.761 76.871 135.125 76.871 86.726 0 157.28-70.555 157.28-157.281 0-40.301-14.913-78-42.167-107.16zm-5.456-42.239c1.992-2.382 5.554-2.703 7.949-.703a5.573 5.573 0 0 1 1.992 3.813c.137 1.5-.32 2.96-1.285 4.113l-.004.004-17.75 21.242c-.183-.152-.375-.297-.558-.45a150.11 150.11 0 0 0-3.27-2.624c-.242-.188-.48-.383-.723-.57a155.184 155.184 0 0 0-4.015-2.997c-.121-.085-.235-.18-.356-.265zm-103.336-7.757c-.567-.02-1.137-.032-1.707-.047l-.399-.012a158.568 158.568 0 0 0-8.941.016c-.535.015-1.07.027-1.602.046v-18.222h12.649zm23.191-41.383a3.17 3.17 0 0 1-3.168 3.164h-9.926c-.035 0-.066-.004-.097-.004h-32.653c-.03 0-.062.004-.093.004h-9.93a3.166 3.166 0 0 1-3.164-3.164 3.166 3.166 0 0 1 3.164-3.164h52.7a3.17 3.17 0 0 1 3.167 3.164zM173.691 415.133H97.52c-12.106 0-21.95-9.848-21.95-21.95V220.439c0-5.52-4.476-10-10-10-5.523 0-10 4.48-10 10v147.43H43.004c-12.41 0-22.504-10.095-22.504-22.505V55.996C20.5 36.148 36.648 20 56.496 20h179.957c12.41 0 22.508 10.098 22.508 22.508V53.55H97.52c-23.133 0-41.95 18.816-41.95 41.945v44.945c0 5.52 4.477 10 10 10 5.524 0 10-4.48 10-10V95.496c0-12.101 9.844-21.945 21.95-21.945h190.14c12.106 0 21.953 9.844 21.953 21.945v37.52h-17.027c-12.777 0-23.168 10.39-23.168 23.164 0 12.773 10.39 23.164 23.168 23.164l.023 20.297c-.308.054-.613.113-.918.168a143 143 0 0 0-3.371.629c-.543.105-1.086.21-1.625.324-.578.12-1.152.25-1.726.375-.551.12-1.098.242-1.645.367-.562.133-1.125.27-1.687.406-.555.137-1.11.27-1.664.41-.543.137-1.082.285-1.621.426-.57.152-1.137.3-1.704.457-.507.145-1.011.293-1.52.442-1.593.46-3.175.937-4.75 1.449-.042.015-.089.027-.136.043-.629.203-1.254.422-1.883.633-.449.152-.898.3-1.343.457-.61.214-1.215.437-1.825.656-.46.168-.921.332-1.379.504-.597.222-1.195.457-1.792.687-.461.18-.922.36-1.383.543-.59.235-1.176.477-1.766.719a168.096 168.096 0 0 0-3.129 1.332c-.457.203-.91.402-1.363.61-.582.261-1.16.527-1.738.792a230.367 230.367 0 0 0-3.07 1.469c-.442.219-.88.438-1.317.656-.574.29-1.149.582-1.719.875-.433.227-.863.457-1.293.684-.574.305-1.144.61-1.715.918-.414.226-.828.46-1.238.691-.578.325-1.16.645-1.734.977-.387.223-.766.45-1.149.676-.597.347-1.195.695-1.789 1.054-.289.176-.574.356-.863.535-1.48.907-2.95 1.84-4.399 2.797a9.65 9.65 0 0 0-.332.215c-.578.383-1.152.778-1.726 1.172-.367.25-.735.496-1.102.75-.53.371-1.058.75-1.586 1.129-.402.285-.808.57-1.207.863-.507.371-1.011.746-1.52 1.125-.405.305-.816.61-1.226.918-.496.38-.988.766-1.48 1.153-.41.316-.817.636-1.223.96-.484.387-.965.778-1.445 1.168-.41.333-.817.668-1.219 1.004-.473.395-.941.793-1.41 1.192a76.98 76.98 0 0 0-1.207 1.043 120.904 120.904 0 0 0-2.567 2.285c-.457.418-.914.832-1.367 1.254-.386.363-.773.73-1.16 1.097-.445.426-.894.852-1.34 1.282-.379.37-.754.746-1.133 1.12-.44.438-.882.876-1.32 1.317-.363.371-.723.75-1.086 1.13-.441.456-.883.91-1.32 1.37-.309.332-.613.668-.918 1-.461.5-.926.992-1.383 1.496-26.07 28.922-40.43 66.309-40.43 105.274 0 15.87 2.372 31.195 6.766 45.648.027.098.059.195.086.293.27.883.55 1.762.836 2.637l.445 1.367c.168.496.34.984.508 1.473.293.851.59 1.699.898 2.543.028.07.051.136.075.203.765 2.097 1.57 4.183 2.43 6.25zM318.938 492c-58.993 0-109.41-37.402-128.797-89.734-.063-.176-.133-.352-.2-.532-.25-.691-.492-1.386-.734-2.082-.227-.664-.453-1.324-.672-1.988-.148-.445-.293-.894-.437-1.34a138.12 138.12 0 0 1-6.157-32.742l-.035-.527a162.77 162.77 0 0 1-.172-3.66 19.495 19.495 0 0 0-.02-.532 150.459 150.459 0 0 1-.062-4.144 137.123 137.123 0 0 1 76.293-123.094c.04-.02.075-.04.11-.055.441-.218.886-.425 1.328-.636.496-.239.988-.48 1.492-.715.012-.004.027-.012.043-.02 13.203-6.133 27.594-10.246 42.8-11.922 9.65-1.078 19.856-1.101 29.548-.082.3.032.601.051.898.086 20.129 2.215 39.09 8.7 56.36 19.274a137.918 137.918 0 0 1 23.129 17.805c27.449 26.152 42.566 61.44 42.566 99.359 0 75.695-61.586 137.281-137.281 137.281zm0 0"/><path d="M318.934 236.059c-65.43 0-118.66 53.23-118.66 118.66s53.23 118.656 118.66 118.656 118.66-53.227 118.66-118.656-53.23-118.66-118.66-118.66zm0 217.316c-54.399 0-98.66-44.258-98.66-98.656 0-54.403 44.257-98.66 98.66-98.66s98.66 44.257 98.66 98.66c0 54.398-44.258 98.656-98.66 98.656zm0 0"/><path d="M365.668 289.59c-4.488-3.223-10.734-2.195-13.957 2.293l-36.816 51.312-31.383-8.812c-5.32-1.492-10.84 1.61-12.332 6.926-1.492 5.316 1.605 10.836 6.922 12.332l38.128 10.703a9.896 9.896 0 0 0 2.704.375c3.168 0 6.214-1.512 8.125-4.172l40.902-57.004c3.223-4.488 2.191-10.734-2.293-13.953zm-46.734 3.015c5.523 0 10-4.48 10-10v-9.238c0-5.52-4.477-10-10-10-5.524 0-10 4.48-10 10v9.238c0 5.52 4.476 10 10 10zm0 124.227c-5.524 0-10 4.477-10 10v9.234c0 5.524 4.476 10 10 10 5.523 0 10-4.476 10-10v-9.234c0-5.523-4.477-10-10-10zm81.351-72.113h-9.238c-5.524 0-10 4.476-10 10 0 5.52 4.476 10 10 10h9.238c5.524 0 10-4.48 10-10 0-5.524-4.476-10-10-10zm-153.465 0h-9.238c-5.523 0-10 4.476-10 10 0 5.52 4.477 10 10 10h9.238c5.524 0 10-4.48 10-10 0-5.524-4.476-10-10-10zm0 0"/></svg>