<svg xmlns="http://www.w3.org/2000/svg" viewBox="0 0 512.001 512.001" fill="#11126B"><circle cx="145.46" cy="242" r="10"/><circle cx="202.57" cy="275.33" r="10"/><circle cx="259.46" cy="213.34" r="10"/><circle cx="315.22" cy="238.01" r="10"/><circle cx="370.34" cy="167.39" r="10"/><path d="M502 364.718H299.485c-5.522 0-10 4.477-10 10 0 9.303-7.568 16.871-16.871 16.871h-33.492c-9.303 0-16.871-7.568-16.871-16.871 0-5.523-4.478-10-10-10H54.836V105.67c0-11.623 9.456-21.078 21.078-21.078h360.172c11.622 0 21.078 9.456 21.078 21.078v192.523c0 5.523 4.478 10 10 10s10-4.477 10-10V105.67c0-22.65-18.428-41.078-41.078-41.078H75.914c-22.65 0-41.078 18.428-41.078 41.078v259.048H10c-5.522 0-10 4.477-10 10v15.712c0 31.418 25.561 56.978 56.979 56.978h398.043c31.418 0 56.979-25.56 56.979-56.978v-15.712c-.001-5.523-4.479-10-10.001-10zm-10 25.712c0 20.39-16.589 36.978-36.979 36.978H56.979C36.589 427.408 20 410.82 20 390.43v-5.712h183.629c4.369 15.487 18.627 26.871 35.493 26.871h33.492c16.866 0 31.124-11.384 35.493-26.871H492v5.712z"/><path d="M426.17 107.246H89.212c-5.522 0-10 4.477-10 10v215.413c0 5.523 4.478 10 10 10H426.17c5.522 0 10-4.477 10-10V117.246c0-5.523-4.478-10-10-10zm-10 215.413h-35.828V202.814c0-5.523-4.478-10-10-10s-10 4.477-10 10v119.845h-36.22v-44.496c0-5.523-4.478-10-10-10s-10 4.477-10 10v44.496h-36.22v-67.598c0-5.523-4.478-10-10-10s-10 4.477-10 10v67.598h-36.219v-9.653c0-5.523-4.478-10-10-10s-10 4.477-10 10v9.653h-36.22v-39.654c0-5.523-4.478-10-10-10s-10 4.477-10 10v39.654H99.212V127.246H416.17v195.413z"/><circle cx="465.99" cy="337.27" r="10"/></svg>