<svg xmlns="http://www.w3.org/2000/svg" viewBox="0 0 512.001 512.001" fill="#00AEC2"><path d="M419.016 296c-5.511 0-10.001 4.49-10.001 10s4.49 10 10.001 10c5.51 0 10.001-4.49 10.001-10s-4.491-10-10.001-10z"/><path d="M509.895 260.028c-1.823-2.402-4.666-4.028-7.874-4.028h-32.002v-70c0-5.522-4.477-10-10.001-10H220.005c-5.523 0-10.001 4.478-10.001 10v110h-20.001V158c0-5.522-4.477-10-10.001-10h-6v-32c0-5.522-4.477-10-10.001-10h-50.003c-5.523 0-10.001 4.478-10.001 10v32h-24c-5.523 0-10.001 4.478-10.001 10v30H49.995c-5.523 0-10.001 4.478-10.001 10v70H9.993c-5.822 0-10.691 5.594-9.91 11.344l16.001 118a10 10 0 0 0 9.91 8.656H398.86c42.065 0 79.401-26.765 92.906-66.602.057-.167.109-.335.156-.505l19.726-70.187c.872-3.1.069-6.276-1.753-8.678zM390.014 196h60.003v20h-60.003v-20zm0 40h60.003v20h-60.003v-20zm-80.004-40h60.003v20H310.01v-20zm0 40h60.003v20H310.01v-20zm0 40h45.86l-20.001 20H310.01v-20zm-80.005-80h60.003v20h-60.003v-20zm0 40h60.003v20h-60.003v-20zm0 40h60.003v20h-60.003v-20zM123.999 126h30.002v22h-30.002v-22zm-34.001 42h80.004v20H89.998v-20zm-30.002 40h110.006v88h-45.003v-18c0-5.522-4.477-10-10.001-10H59.996v-60zM472.74 333.222C461.92 364.801 432.263 386 398.86 386H34.73l-13.289-98h83.557v18c0 5.522 4.477 10 10.001 10h264.015c5.51 0 10.001-4.49 10.001-10s-4.49-10-10.001-10h-14.858l20.001-20h104.666l-16.083 57.222z"/></svg>